<svg xmlns="http://www.w3.org/2000/svg" viewBox="0 0 707.07 260.83">
  <path fill="#2c2c2c" d="M158.22,4.01c-1.86,1.1-3.57,2.38-5.12,3.82-3.86-.5-7.98-.82-12.31-.87-15.79.1-31.24,2.83-45.49,11.48-14.27,8.1-26.52,26.37-25.99,45.78-.25,6.48,1.17,13.02,3.73,19.03l-8.84,21.47c-.58,1.4-1.04,2.85-1.39,4.31l-21.39,4.03c-8.58,1.62-15.75,6.93-19.85,14.23-4.68,1.22-9.01,3.62-12.6,7.03-5.75,5.48-8.98,13-8.98,20.94v16.88c0,8.05,3.31,15.65,9.19,21.15,1.67,1.56,3.49,2.89,5.43,4,2.1,10.67,7.05,21.53,16.83,29.64,14.34,11.36,29.1,12.32,42.24,12.52,8.99-.16,16.82-1.24,23.66-2.87,3.64,1.33,7.54,1.94,11.49,1.73,6.03-.32,13.41-.62,20.32-.62,6.66,0,14.22.3,21.66.63,1.78.08,3.54,0,5.26-.24,2.53.62,5.16.89,7.83.8l31.87-1.1c4.4-.15,8.55-1.28,12.24-3.17,9.03,3.66,18.67,5.25,28.34,5.28,22.28-.25,38.17-5.89,49.03-12.22.68-.41,1.35-.85,1.99-1.31,3.61,5.67,9.12,9.97,15.58,12.04l20.29,6.51c7.87,2.52,16.58,1.52,23.67-2.72,1.88-1.13,3.62-2.46,5.18-3.96,5.3.77,11.14,1.24,17.48,1.22,16.18-.11,31.74-2.7,45.99-11.35,12.19,8.52,26.67,12.21,41.46,12.23,10.81-.01,21.48-1.97,31.21-6.37,4.96,3.1,10.76,4.64,16.72,4.35,6.69-.33,14.09-.63,20.99-.63,6.65,0,13.72.3,21.22.63,1.81.08,3.6,0,5.35-.25,2.55.62,5.19.91,7.85.81l17.61-.61c2.24,4.13,5.52,7.76,9.72,10.47,11.56,7.02,25.85,11.71,45.88,12.11,14.29.03,29.97-3.19,42.54-14.51,12.6-11.38,17.25-27.59,17.57-41.52h0s.28-8.08.28-8.08c4.27-3.98,7.3-9.21,8.56-15.02l3.86-17.76c1.64-7.55.15-15.58-4.09-22.03-4.25-6.45-11.03-11.01-18.61-12.49l-30.99-6.07c-2.7-.53-5.43-.66-8.12-.42,1.44-4.61,1.72-9.55.75-14.38l-3.75-18.53c-1.27-6.28-4.62-11.95-9.4-16.11.52-12.89,1.38-25.94,2.75-38.71.94-8.73-2.14-17.4-8.36-23.59-6.22-6.19-14.91-9.22-23.63-8.23l-43.01,4.85c-8.72.99-16.55,5.9-21.23,13.33-2.95,4.69-4.46,10.08-4.44,15.49-2.45,1.29-4.82,2.76-7.1,4.42-.53-.42-1.07-.82-1.62-1.21-14.85-10.44-29.19-10.93-41-11.14-19.66.01-34.99,6.22-43.34,10.03-11.13-6.52-24.45-9.72-38.6-9.7-10.28.05-20.69,1.66-30.55,5.88-7.59-3.73-15.98-5.34-24.04-5.33-4.01-.05-7.99.37-11.82,1.18-4.44-1.76-9.3-2.43-14.13-1.85l-35.74,4.3c-2.41.29-4.74.88-6.97,1.74-8.14-3.7-17.1-5.5-26.08-5.48-3.23.02-6.26.21-9.1.52-4.71-1.93-9.9-2.62-15.04-1.89l-6.93.98c-.42-1.92-1.04-3.81-1.86-5.65-3.37-7.55-9.74-13.25-17.61-15.76l-21.07-6.73c-2.89-.92-5.86-1.38-8.82-1.38-5.09,0-10.14,1.35-14.65,4.01" />
  <g fill="#ff66ce">
    <path d="M180.6,64.54c-11.03-7.94-24.15-14.01-39.37-14.01s-19.41,4.19-19.41,9.82c0,4.19,4.74,7.39,14.45,7.39,5.85,0,16.54-1.32,23.16-1.32,23.38,0,32.21,8.16,32.21,19.85,0,18.97-17.43,28.79-43.12,28.79-18.42,0-30-4.96-34.85-7.5l-2.65,14.34-20.29-6.51,12.57-30.55c11.25,9.26,27.35,14.67,43.01,14.67,12.9,0,21.84-3.53,21.84-9.26,0-3.64-2.98-6.73-12.24-6.73-2.43,0-7.28.44-12.68.99-5.4.44-11.36.99-15.77.99-15.33,0-29.45-5.96-29.45-21.62,0-18.75,18.64-28.34,42.57-28.34,11.36,0,24.15,3.86,29.56,5.74l2.54-12.68,21.07,6.73-13.12,29.23Z" />
    <path d="M199.79,120.24l13.79,1.1c.99-15.99.33-33.09-1.21-45.99l-11.25,4.41-3.86-17.87,35.73-5.07-.66,6.18c2.76-1.43,10.26-4.52,20.73-4.52,17.21,0,29.01,10.92,29.01,25.92,0,18.42-12.9,30.33-31.32,30.33-7.72,0-17.21-4.08-18.86-5.96v12.68l18.97-1.43v17.09c-6.18-.33-15.22-.66-24.48-.66s-18.53.33-26.58.66v-16.87ZM231.77,93.66c1.43,1.99,6.62,5.96,14.01,5.96,8.93,0,14.34-5.07,14.34-14.12,0-7.39-4.63-12.79-14.78-12.79-6.73,0-10.48,2.76-13.57,4.63v16.32Z" />
    <path d="M349.34,83.51l-8.27-6.4c-7.06-.11-12.68,4.52-16.87,9.93v11.03l17.32-.99v16.88c-12.35-.33-19.85-.66-27.35-.66s-15.55.33-22.06.66v-16.88l13.79.99-1.1-22.61-11.25,4.41-3.97-17.87,35.73-4.3-2.32,15.33h.11c5.07-7.06,11.69-14.45,24.71-14.45,8.6,0,14.89,3.31,17.76,8.05l-16.21,16.88Z" />
    <path d="M389.04,90.79c.99,4.41,4.52,10.04,17.54,10.04,7.39,0,16.65-4.08,22.28-7.61l7.28,14.23c-5.29,3.2-17.87,8.05-34.08,8.05-20.07,0-36.06-10.92-36.06-29.01s16.32-28.46,36.4-28.46c24.93,0,37.61,13.79,37.72,27.79,0,1.65-.11,3.53-.22,4.96h-50.84ZM419.26,81.53c-.66-4.41-5.74-9.82-15.44-9.82s-14.01,5.51-15,9.82h30.44Z" />
    <path d="M526.79,95.31l3.86,18.09-33.2,3.75.66-10.48c-3.64,2.54-13.12,8.38-24.82,8.38-15.99,0-25.7-7.17-25.7-17.87s10.26-16.98,29.34-16.98c7.94,0,15.11,1.88,20.4,3.53v-1.54c0-4.52-3.2-9.38-13.9-9.38s-18.86,4.08-24.04,7.94l-8.49-14.67c6.51-3.09,18.42-8.38,33.42-8.38,19.41,0,33.2,4.85,33.2,29.67,0,2.65-.33,8.93-.66,11.36l9.93-3.42ZM480.35,102.7c6.62,0,13.68-3.97,16.76-7.5-3.53-1.88-10.15-3.64-14.89-3.64-5.62,0-9.93,2.1-9.93,5.18,0,3.64,3.09,5.96,8.05,5.96Z" />
    <path d="M613.03,95.42l3.75,18.53-30.99,3.2.66-10.48c-3.2,3.09-11.25,8.38-22.28,8.38-17.87,0-30.88-11.03-30.88-28.46s12.68-28.12,31.1-28.12c10.92,0,16.43,2.43,19.85,3.75l-.88-13.01-14.23,5.18-6.18-17.76,43.01-4.85c-2.43,22.61-3.31,45.55-3.53,66.95l10.59-3.31ZM583.58,76.23c-2.98-1.43-6.84-3.53-13.57-3.53-10.15,0-14.78,6.51-14.78,13.79,0,8.16,6.4,13.12,14.34,13.12,7.39,0,12.46-3.97,14.01-5.96v-17.43Z" />
    <path d="M63.04,170.75c-.22,1.43-.77,5.74-.77,9.93,0,9.15,2.65,13.9,14.01,13.9,7.72,0,16.98-4.52,21.29-7.72l7.61,15.55c-4.74,2.87-17.21,7.72-31.65,7.72-21.51,0-31.43-6.29-31.43-28.01,0-3.86.55-7.61.88-11.36l-14.23.99v-16.88l15.66.77,2.21-14.56,22.83-4.3c-1.21,3.42-3.42,12.57-4.52,18.86l32.76-.77v16.88l-34.63-.99Z" />
    <path d="M196.37,191.26l-1.76,17.21-31.87,1.1c1.65-7.83,2.87-17.32,2.87-25.81s-4.08-10.26-9.15-10.26c-7.06,0-11.58,3.42-16.98,6.95v12.68l12.46-.99v16.88c-7.5-.33-15.44-.66-22.94-.66s-15.55.33-21.84.66v-16.88l13.57.99-1.1-48.53-11.25,4.52-3.97-17.87,36.17-4.41-1.54,37.39c6.07-4.63,15.11-10.7,28.01-10.7,15,0,18.64,10.26,18.75,24.59,0,3.31-.44,10.7-.88,14.89l11.47-1.76Z" />
    <path d="M223.17,185.86c.99,4.41,4.52,10.04,17.54,10.04,7.39,0,16.65-4.08,22.28-7.61l7.28,14.23c-5.29,3.2-17.87,8.05-34.08,8.05-20.07,0-36.07-10.92-36.07-29.01s16.32-28.46,36.4-28.46c24.93,0,37.61,13.79,37.72,27.79,0,1.65-.11,3.53-.22,4.96h-50.84ZM253.39,176.59c-.66-4.41-5.74-9.82-15.44-9.82s-14.01,5.51-15,9.82h30.44Z" />
    <path d="M401.5,159.61c-11.03-7.94-24.15-14.01-39.37-14.01s-19.41,4.19-19.41,9.82c0,4.19,4.74,7.39,14.45,7.39,5.84,0,16.54-1.32,23.16-1.32,23.38,0,32.2,8.16,32.2,19.85,0,18.97-17.43,28.79-43.12,28.79-18.42,0-30-4.96-34.85-7.5l-2.65,14.34-20.29-6.51,12.57-30.55c11.25,9.26,27.35,14.67,43.01,14.67,12.9,0,21.84-3.53,21.84-9.26,0-3.64-2.98-6.73-12.24-6.73-2.43,0-7.28.44-12.68.99-5.4.44-11.36.99-15.77.99-15.33,0-29.45-5.96-29.45-21.62,0-18.75,18.64-28.34,42.57-28.34,11.36,0,24.15,3.86,29.56,5.74l2.54-12.68,21.07,6.73-13.12,29.23Z" />
    <path d="M420.24,181.78c0-17.32,15.22-29.01,36.62-29.01s36.51,11.58,36.51,29.01-15,29.23-36.51,29.23-36.62-11.8-36.62-29.23ZM471.42,181.78c0-9.04-6.62-14.45-14.45-14.45s-14.67,5.4-14.67,14.45,6.51,14.67,14.67,14.67,14.45-5.51,14.45-14.67Z" />
    <path d="M535.82,193.14l12.46-.99v16.88c-7.5-.33-15-.66-22.5-.66s-15.55.33-22.39.66v-16.88l13.68.99-1.1-22.72-11.14,4.41-3.97-17.87,36.06-4.3-1.54,11.58c6.18-4.63,15.11-10.7,28.01-10.7,15,0,18.64,10.26,18.75,24.59,0,3.31-.44,10.7-.88,14.89l11.47-1.76-1.76,17.21-31.76,1.1c1.54-7.83,2.65-17.32,2.65-25.81s-3.86-10.37-8.93-10.37c-7.06,0-11.69,3.64-17.09,7.06v12.68Z" />
    <path d="M665.74,171.63l-1.1,31.76c-.66,18.86-10.59,28.12-31.21,28.12-13.57,0-25.26-4.3-30.22-7.5l8.27-14.45c4.08,3.31,12.9,6.95,21.4,6.95s14.45-3.09,14.45-12.13v-1.21c-3.2,2.43-9.04,5.85-18.31,5.85-18.64,0-32.54-10.81-32.54-28.79,0-14.56,11.8-26.69,31.76-26.69,7.94,0,16.21,2.54,19.3,3.75l-.55-5.96,30.99,6.07-3.86,17.76-8.38-3.53ZM646.33,171.3c-2.65-1.43-6.4-3.53-13.12-3.53-10.15,0-14.78,6.18-14.78,13.57,0,8.16,5.29,13.35,14.34,13.35,7.39,0,12.57-3.97,13.79-5.96l-.22-17.43Z" />
  </g>
</svg>