<svg xmlns="http://www.w3.org/2000/svg" viewBox="0 0 707.07 496.85">
  <path fill="#2c2c2c" d="M702.32,377.93c-4.25-6.45-11.02-11-18.61-12.49l-30.99-6.07c-2.7-.53-5.43-.66-8.12-.42,1.44-4.6,1.72-9.55.75-14.38l-3.75-18.53c-1.27-6.28-4.62-11.95-9.4-16.1.51-12.89,1.38-25.94,2.75-38.71.94-8.73-2.14-17.4-8.36-23.59-6.22-6.19-14.91-9.22-23.63-8.23l-43.01,4.85c-8.72.99-16.55,5.9-21.23,13.33-2.95,4.69-4.46,10.07-4.44,15.49-2.45,1.29-4.82,2.76-7.1,4.42-.53-.42-1.07-.82-1.62-1.21-14.85-10.44-29.19-10.93-41-11.14-3.5,0-6.86.21-10.07.55,28.54-28.14,46.24-67.26,46.24-110.51C520.73,69.48,451.25,0,365.53,0s-155.2,69.48-155.2,155.19c0,43.41,17.83,82.65,46.56,110.82-1.2-.06-2.41-.1-3.61-.09-3.23.02-6.26.21-9.1.52-4.71-1.93-9.9-2.62-15.04-1.89l-6.93.98c-.42-1.92-1.04-3.81-1.86-5.65-3.37-7.55-9.74-13.25-17.61-15.76l-21.07-6.73c-2.89-.92-5.86-1.38-8.82-1.38-5.09,0-10.14,1.35-14.65,4.01-1.86,1.1-3.57,2.38-5.12,3.82-3.86-.5-7.98-.82-12.31-.87-15.79.1-31.24,2.83-45.49,11.48-14.27,8.1-26.52,26.37-25.99,45.78-.25,6.48,1.17,13.03,3.73,19.03l-8.83,21.47c-.58,1.41-1.04,2.84-1.39,4.31l-21.39,4.03c-8.58,1.62-15.75,6.93-19.85,14.22-4.68,1.22-9.01,3.62-12.6,7.03-5.75,5.48-8.98,13-8.98,20.94v16.88c0,8.05,3.31,15.66,9.19,21.15,1.67,1.55,3.49,2.89,5.43,4,2.1,10.67,7.05,21.53,16.83,29.64,14.34,11.36,29.1,12.32,42.24,12.52,8.99-.16,16.82-1.23,23.66-2.87,3.64,1.33,7.54,1.94,11.49,1.73,6.03-.32,13.41-.62,20.32-.62,6.66,0,14.22.3,21.67.63,1.78.08,3.53,0,5.26-.24,2.53.62,5.16.89,7.82.8l31.87-1.1c4.4-.15,8.55-1.28,12.24-3.17,9.03,3.66,18.67,5.25,28.34,5.28,22.28-.25,38.17-5.89,49.03-12.22.69-.41,1.35-.85,1.99-1.31,3.6,5.67,9.12,9.97,15.58,12.04l20.29,6.51c7.87,2.52,16.58,1.52,23.67-2.72,1.88-1.13,3.61-2.46,5.18-3.96,5.31.77,11.14,1.24,17.48,1.22,16.18-.11,31.74-2.7,45.99-11.35,12.19,8.52,26.67,12.21,41.46,12.23,10.81-.01,21.48-1.97,31.21-6.37,4.96,3.1,10.76,4.64,16.72,4.35,6.69-.33,14.09-.63,20.99-.63,6.65,0,13.72.3,21.22.63,1.81.08,3.6,0,5.35-.25,2.55.62,5.19.91,7.85.81l17.61-.61c2.24,4.13,5.52,7.76,9.72,10.47,11.56,7.02,25.85,11.71,45.88,12.11,14.29.03,29.97-3.19,42.54-14.51,12.6-11.38,17.25-27.59,17.57-41.52h0s.28-8.08.28-8.08c4.27-3.98,7.3-9.21,8.56-15.02l3.86-17.76c1.64-7.55.15-15.58-4.09-22.03Z" />
  <g fill="#ff66ce">
    <path d="M395.09,149.07c0,7.01-1.3,13.84-3.86,20.3l5.69,2.26c2.85-7.18,4.29-14.77,4.29-22.56,0-19.02-8.62-36.63-23.64-48.34l-3.76,4.83c13.52,10.53,21.28,26.39,21.28,43.51Z" />
    <path d="M373.91,163.2l5.65,2.36c2.18-5.23,3.28-10.78,3.28-16.49,0-8.21-2.33-16.19-6.74-23.08l-5.16,3.3c3.78,5.9,5.77,12.74,5.77,19.78,0,4.9-.95,9.65-2.81,14.13Z" />
    <path d="M442.33,108.14c-4.61-11.51-11.09-22.11-19.28-31.49l-4.61,4.02c7.73,8.86,13.86,18.87,18.21,29.74l5.68-2.27Z" />
    <path d="M462.43,164.38v-45.63l-36.73-3.67v30.93h-6.12c-6.75,0-12.25,5.49-12.25,12.24s5.49,12.25,12.25,12.25,12.24-5.49,12.24-12.25v-18.05l24.49,2.45v9.47h-6.12c-6.75,0-12.24,5.49-12.24,12.24s5.49,12.24,12.24,12.24,12.24-5.49,12.24-12.24ZM425.7,158.26c0,3.38-2.75,6.12-6.12,6.12s-6.12-2.75-6.12-6.12,2.75-6.12,6.12-6.12h6.12v6.12ZM431.82,134.06v-12.21l24.49,2.45v12.21l-24.49-2.45ZM444.07,164.38c0-3.38,2.75-6.12,6.12-6.12h6.12v6.12c0,3.38-2.75,6.12-6.12,6.12s-6.12-2.75-6.12-6.12Z" />
    <path d="M437.79,184.75c-9.63,26.39-29.89,48.07-55.59,59.48l2.49,5.6c27.21-12.09,48.66-35.04,58.85-62.98l-5.75-2.1Z" />
    <path d="M401.21,84.78h6.12v36.74h6.12v-48.98c0-6.75-5.49-12.24-12.24-12.24s-12.24,5.49-12.24,12.24,5.49,12.24,12.24,12.24ZM401.21,66.42c3.38,0,6.12,2.75,6.12,6.12v6.12h-6.12c-3.38,0-6.12-2.75-6.12-6.12s2.75-6.12,6.12-6.12Z" />
    <path d="M428.27,107.91c-2.18-4.38-4.74-8.64-7.6-12.66l-4.99,3.55c2.67,3.75,5.06,7.73,7.1,11.83l5.48-2.73Z" />
    <path d="M433.45,177.57l-5.82-1.89c-9.33,28.75-33.82,51.42-63.92,59.18l1.53,5.93c32.1-8.28,58.24-32.51,68.21-63.22Z" />
    <path d="M358.35,127.64c6.75,0,12.24-5.49,12.24-12.24v-48.98h-6.12v36.74h-6.12c-6.75,0-12.24,5.49-12.24,12.24s5.49,12.24,12.24,12.24ZM358.35,109.27h6.12v6.12c0,3.38-2.75,6.12-6.12,6.12s-6.12-2.75-6.12-6.12,2.75-6.12,6.12-6.12Z" />
    <path d="M309.37,234.79v-33.67c16.88,0,30.61-13.73,30.61-30.61,0-13.5-10.99-24.49-24.49-24.49-10.13,0-18.37,8.24-18.37,18.37,0,6.75,5.49,12.24,12.25,12.24s12.25-5.49,12.25-12.24h-6.12c0,3.38-2.75,6.12-6.12,6.12s-6.12-2.75-6.12-6.12c0-6.75,5.49-12.24,12.25-12.24,10.13,0,18.37,8.24,18.37,18.37,0,13.5-10.99,24.49-24.49,24.49-16.88,0-30.61-13.73-30.61-30.61,0-12.42,6.07-24.09,16.25-31.21l33.37-23.36c7.27-5.09,11.61-13.42,11.61-22.3,0-15.01-12.21-27.22-27.22-27.22-5.25,0-9.52,4.27-9.52,9.52v50.12l-11.75,8.22c-11.81,8.27-18.86,21.81-18.86,36.22,0,18.17,13.27,33.26,30.61,36.18v34.23c0,5.06-4.12,9.18-9.18,9.18s-9.18-4.12-9.18-9.18c0-1.69,1.38-3.06,3.06-3.06s3.06,1.38,3.06,3.06v3.06h6.12v-3.06c0-5.06-4.12-9.18-9.18-9.18s-9.18,4.12-9.18,9.18c0,8.44,6.87,15.31,15.31,15.31s15.31-6.87,15.31-15.31ZM309.37,69.81c0-1.87,1.52-3.4,3.4-3.4,11.63,0,21.1,9.46,21.1,21.1,0,6.88-3.36,13.34-9,17.28l-15.49,10.84v-45.83Z" />
    <path d="M352.23,231.73c6.75,0,12.25-5.49,12.25-12.24v-23.82l30.61,6.12v-24.61l-36.74-7.35v37.41h-6.12c-6.75,0-12.25,5.49-12.25,12.24s5.49,12.24,12.25,12.24ZM364.47,177.3l24.49,4.9v12.12l-24.49-4.9v-12.12ZM352.23,213.36h6.12v6.12c0,3.38-2.75,6.12-6.12,6.12s-6.12-2.75-6.12-6.12,2.75-6.12,6.12-6.12Z" />
    <path d="M146.3,335.53c-15.66,0-31.76-5.4-43.01-14.67l-12.57,30.55,20.29,6.51,2.65-14.34c4.85,2.54,16.43,7.5,34.85,7.5,25.7,0,43.12-9.82,43.12-28.79,0-11.69-8.82-19.85-32.21-19.85-6.62,0-17.32,1.32-23.16,1.32-9.71,0-14.45-3.2-14.45-7.39,0-5.62,4.85-9.82,19.41-9.82s28.34,6.07,39.37,14.01l13.12-29.23-21.07-6.73-2.54,12.68c-5.4-1.88-18.2-5.74-29.56-5.74-23.93,0-42.57,9.6-42.57,28.34,0,15.66,14.12,21.62,29.45,21.62,4.41,0,10.37-.55,15.77-.99,5.4-.55,10.26-.99,12.68-.99,9.26,0,12.24,3.09,12.24,6.73,0,5.74-8.93,9.26-21.84,9.26Z" />
    <path d="M253.06,294.5c-10.48,0-17.98,3.09-20.73,4.52l.66-6.18-35.73,5.07,3.86,17.87,11.25-4.41c1.54,12.9,2.21,30,1.21,45.99l-13.79-1.1v16.87c8.05-.33,17.32-.66,26.58-.66s18.31.33,24.48.66v-17.09l-18.97,1.43v-12.68c1.65,1.88,11.14,5.96,18.86,5.96,18.42,0,31.32-11.91,31.32-30.33,0-15-11.8-25.92-29.01-25.92ZM245.78,335.64c-7.39,0-12.57-3.97-14.01-5.96v-16.32c3.09-1.88,6.84-4.63,13.57-4.63,10.15,0,14.78,5.4,14.78,12.79,0,9.04-5.4,14.12-14.34,14.12Z" />
    <path d="M292.1,349.98c6.51-.33,14.34-.66,22.06-.66s15,.33,27.35.66v-16.88l-17.32.99v-11.03c4.19-5.4,9.82-10.04,16.87-9.93l8.27,6.4,16.21-16.88c-2.87-4.74-9.15-8.05-17.76-8.05-13.01,0-19.63,7.39-24.71,14.45h-.11l2.32-15.33-35.73,4.3,3.97,17.87,11.25-4.41,1.1,22.61-13.79-.99v16.88Z" />
    <path d="M440.1,321.85c-.11-14.01-12.79-27.79-37.72-27.79-20.07,0-36.4,9.71-36.4,28.46s15.99,29.01,36.06,29.01c16.21,0,28.79-4.85,34.08-8.05l-7.28-14.23c-5.62,3.53-14.89,7.61-22.28,7.61-13.01,0-16.54-5.62-17.54-10.04h50.84c.11-1.43.22-3.31.22-4.96ZM388.82,317.55c.99-4.3,5.4-9.82,15-9.82s14.78,5.4,15.44,9.82h-30.44Z" />
    <path d="M530.65,349.43l-3.86-18.09-9.93,3.42c.33-2.43.66-8.71.66-11.36,0-24.82-13.79-29.67-33.2-29.67-15,0-26.91,5.29-33.42,8.38l8.49,14.67c5.18-3.86,13.57-7.94,24.04-7.94s13.9,4.85,13.9,9.38v1.54c-5.29-1.65-12.46-3.53-20.4-3.53-19.08,0-29.34,6.29-29.34,16.98s9.71,17.87,25.7,17.87c11.69,0,21.18-5.85,24.82-8.38l-.66,10.48,33.2-3.75ZM480.35,338.73c-4.96,0-8.05-2.32-8.05-5.96,0-3.09,4.3-5.18,9.93-5.18,4.74,0,11.36,1.76,14.89,3.64-3.09,3.53-10.15,7.5-16.76,7.5Z" />
    <path d="M564.17,351.08c11.03,0,19.08-5.29,22.28-8.38l-.66,10.48,30.99-3.2-3.75-18.53-10.59,3.31c.22-21.4,1.1-44.34,3.53-66.95l-43.01,4.85,6.18,17.76,14.23-5.18.88,13.01c-3.42-1.32-8.93-3.75-19.85-3.75-18.42,0-31.1,11.14-31.1,28.12s13.01,28.46,30.88,28.46ZM570.02,308.73c6.73,0,10.59,2.1,13.57,3.53v17.43c-1.54,1.99-6.62,5.96-14.01,5.96-7.94,0-14.34-4.96-14.34-13.12,0-7.28,4.63-13.79,14.78-13.79Z" />
    <path d="M76.27,430.59c-11.36,0-14.01-4.74-14.01-13.9,0-4.19.55-8.49.77-9.93l34.63.99v-16.88l-32.76.77c1.1-6.29,3.31-15.44,4.52-18.86l-22.83,4.3-2.21,14.56-15.66-.77v16.88l14.23-.99c-.33,3.75-.88,7.5-.88,11.36,0,21.73,9.93,28.01,31.43,28.01,14.45,0,26.91-4.85,31.65-7.72l-7.61-15.55c-4.3,3.2-13.57,7.72-21.29,7.72Z" />
    <path d="M185.79,414.16c-.11-14.34-3.75-24.59-18.75-24.59-12.9,0-21.95,6.07-28.01,10.7l1.54-37.39-36.17,4.41,3.97,17.87,11.25-4.52,1.1,48.53-13.57-.99v16.88c6.29-.33,14.12-.66,21.84-.66s15.44.33,22.94.66v-16.88l-12.46.99v-12.68c5.4-3.53,9.93-6.95,16.98-6.95,5.07,0,9.15,2.1,9.15,10.26s-1.21,17.98-2.87,25.81l31.87-1.1,1.76-17.21-11.47,1.76c.44-4.19.88-11.58.88-14.89Z" />
    <path d="M236.51,389.13c-20.07,0-36.4,9.71-36.4,28.46s15.99,29.01,36.07,29.01c16.21,0,28.79-4.85,34.08-8.05l-7.28-14.23c-5.62,3.53-14.89,7.61-22.28,7.61-13.01,0-16.54-5.62-17.54-10.04h50.84c.11-1.43.22-3.31.22-4.96-.11-14.01-12.79-27.79-37.72-27.79ZM222.95,412.62c.99-4.3,5.4-9.82,15-9.82s14.78,5.4,15.44,9.82h-30.44Z" />
    <path d="M362.13,381.63c15.22,0,28.34,6.07,39.37,14.01l13.12-29.23-21.07-6.73-2.54,12.68c-5.4-1.88-18.2-5.74-29.56-5.74-23.93,0-42.57,9.6-42.57,28.34,0,15.66,14.12,21.62,29.45,21.62,4.41,0,10.37-.55,15.77-.99,5.4-.55,10.26-.99,12.68-.99,9.26,0,12.24,3.09,12.24,6.73,0,5.74-8.93,9.26-21.84,9.26-15.66,0-31.76-5.4-43.01-14.67l-12.57,30.55,20.29,6.51,2.65-14.34c4.85,2.54,16.43,7.5,34.85,7.5,25.7,0,43.12-9.82,43.12-28.79,0-11.69-8.82-19.85-32.2-19.85-6.62,0-17.32,1.32-23.16,1.32-9.71,0-14.45-3.2-14.45-7.39,0-5.62,4.85-9.82,19.41-9.82Z" />
    <path d="M456.86,388.8c-21.4,0-36.62,11.69-36.62,29.01s15.22,29.23,36.62,29.23,36.51-11.69,36.51-29.23-15.66-29.01-36.51-29.01ZM456.97,432.47c-8.16,0-14.67-5.51-14.67-14.67s6.51-14.45,14.67-14.45,14.45,5.4,14.45,14.45-6.62,14.67-14.45,14.67Z" />
    <path d="M582.15,414.16c-.11-14.34-3.75-24.59-18.75-24.59-12.9,0-21.84,6.07-28.01,10.7l1.54-11.58-36.06,4.3,3.97,17.87,11.14-4.41,1.1,22.72-13.68-.99v16.88c6.84-.33,14.67-.66,22.39-.66s15,.33,22.5.66v-16.88l-12.46.99v-12.68c5.4-3.42,10.04-7.06,17.09-7.06,5.07,0,8.93,2.21,8.93,10.37s-1.1,17.98-2.65,25.81l31.76-1.1,1.76-17.21-11.47,1.76c.44-4.19.88-11.58.88-14.89Z" />
    <path d="M646.99,387.36l.55,5.96c-3.09-1.21-11.36-3.75-19.3-3.75-19.96,0-31.76,12.13-31.76,26.69,0,17.98,13.9,28.79,32.54,28.79,9.26,0,15.11-3.42,18.31-5.85v1.21c0,9.04-6.29,12.13-14.45,12.13s-17.32-3.64-21.4-6.95l-8.27,14.45c4.96,3.2,16.65,7.5,30.22,7.5,20.62,0,30.55-9.26,31.21-28.12l1.1-31.76,8.38,3.53,3.86-17.76-30.99-6.07ZM632.76,430.71c-9.04,0-14.34-5.18-14.34-13.35,0-7.39,4.63-13.57,14.78-13.57,6.73,0,10.48,2.1,13.12,3.53l.22,17.43c-1.21,1.99-6.4,5.96-13.79,5.96Z" />
  </g>
</svg>