<svg xmlns="http://www.w3.org/2000/svg" viewBox="0 0 310.39 310.39">
  <path fill="#2c2c2c" d="M310.39,155.2c0,85.71-69.48,155.2-155.2,155.2S0,240.91,0,155.2,69.48,0,155.2,0s155.2,69.48,155.2,155.2" />
  <path fill="#ff66ce" d="M184.75,149.07c0,7.01-1.3,13.84-3.86,20.3l5.69,2.26c2.85-7.18,4.29-14.77,4.29-22.56,0-19.02-8.62-36.63-23.64-48.34l-3.76,4.83c13.52,10.53,21.28,26.39,21.28,43.51M163.57,163.2l5.65,2.36c2.18-5.23,3.29-10.78,3.29-16.49,0-8.21-2.33-16.19-6.74-23.08l-5.16,3.3c3.78,5.9,5.77,12.74,5.77,19.78,0,4.9-.95,9.65-2.81,14.13M217.93,107.91c-2.18-4.38-4.74-8.64-7.6-12.65l-4.99,3.55c2.67,3.75,5.06,7.73,7.1,11.84l5.48-2.73ZM223.11,177.57l-5.82-1.89c-9.33,28.75-33.82,51.42-63.92,59.18l1.53,5.93c32.1-8.28,58.24-32.51,68.21-63.22M232,108.14c-4.61-11.51-11.09-22.11-19.28-31.49l-4.61,4.02c7.73,8.87,13.86,18.87,18.21,29.74l5.68-2.27ZM171.87,244.24l2.49,5.6c27.21-12.09,48.66-35.04,58.85-62.98l-5.75-2.1c-9.63,26.38-29.89,48.07-55.59,59.48M148.01,109.27h6.12v6.12c0,3.38-2.75,6.12-6.12,6.12s-6.12-2.75-6.12-6.12,2.75-6.12,6.12-6.12M148.01,127.64c6.75,0,12.24-5.49,12.24-12.24v-48.98h-6.12v36.74h-6.12c-6.75,0-12.24,5.49-12.24,12.24s5.49,12.24,12.24,12.24M190.87,66.42c3.38,0,6.12,2.75,6.12,6.12v6.12h-6.12c-3.38,0-6.12-2.75-6.12-6.12s2.75-6.12,6.12-6.12M190.87,84.79h6.12v36.74h6.12v-48.98c0-6.75-5.49-12.24-12.24-12.24s-12.24,5.49-12.24,12.24,5.49,12.24,12.24,12.24M221.48,134.06v-12.22l24.49,2.45v12.21l-24.49-2.45ZM245.97,164.38c0,3.38-2.75,6.12-6.12,6.12s-6.12-2.75-6.12-6.12,2.75-6.12,6.12-6.12h6.12v6.12ZM215.36,158.26c0,3.38-2.75,6.12-6.12,6.12s-6.12-2.75-6.12-6.12,2.75-6.12,6.12-6.12h6.12v6.12ZM215.36,115.08v30.93h-6.12c-6.75,0-12.25,5.49-12.25,12.24s5.49,12.24,12.25,12.24,12.24-5.49,12.24-12.24v-18.05l24.49,2.45v9.47h-6.12c-6.75,0-12.24,5.49-12.24,12.24s5.49,12.24,12.24,12.24,12.24-5.49,12.24-12.24v-45.63l-36.73-3.67ZM148.01,219.48c0,3.38-2.75,6.12-6.12,6.12s-6.12-2.75-6.12-6.12,2.75-6.12,6.12-6.12h6.12v6.12ZM154.13,177.3l24.49,4.9v12.12l-24.49-4.9v-12.12ZM154.13,195.67l30.61,6.12v-24.61l-36.74-7.35v37.41h-6.12c-6.75,0-12.25,5.49-12.25,12.24s5.49,12.24,12.25,12.24,12.24-5.49,12.24-12.24v-23.82ZM99.03,69.81c0-1.87,1.52-3.4,3.39-3.4,11.63,0,21.1,9.46,21.1,21.1,0,6.88-3.37,13.34-9,17.28l-15.49,10.84v-45.83ZM105.15,146.01c-10.13,0-18.37,8.24-18.37,18.37,0,6.75,5.49,12.24,12.25,12.24s12.25-5.49,12.25-12.24h-6.12c0,3.38-2.75,6.12-6.12,6.12s-6.12-2.75-6.12-6.12c0-6.75,5.49-12.24,12.24-12.24,10.13,0,18.37,8.24,18.37,18.37,0,13.5-10.99,24.49-24.49,24.49-16.88,0-30.61-13.73-30.61-30.61,0-12.42,6.07-24.09,16.25-31.21l33.37-23.36c7.27-5.09,11.61-13.42,11.61-22.3,0-15.01-12.21-27.22-27.22-27.22-5.25,0-9.52,4.27-9.52,9.52v50.12l-11.75,8.22c-11.81,8.27-18.86,21.81-18.86,36.22,0,18.17,13.27,33.26,30.61,36.18v34.23c0,5.06-4.12,9.18-9.18,9.18s-9.18-4.12-9.18-9.18c0-1.69,1.38-3.06,3.06-3.06s3.06,1.38,3.06,3.06v3.06h6.12v-3.06c0-5.06-4.12-9.18-9.18-9.18s-9.18,4.12-9.18,9.18c0,8.44,6.87,15.31,15.31,15.31s15.31-6.87,15.31-15.31v-33.67c16.88,0,30.61-13.73,30.61-30.61,0-13.5-10.99-24.49-24.49-24.49" />
</svg>