<svg xmlns="http://www.w3.org/2000/svg" viewBox="0 0 184.89 227.14">
  <path d="M179,77.43c-15.09,9.24-24.38,25.58-24.59,43.28.06,20.03,12.04,38.09,30.47,45.93-3.55,11.47-8.81,22.34-15.6,32.24-9.71,13.98-19.87,27.97-35.33,27.97s-19.43-8.98-37.24-8.98-23.55,9.27-37.68,9.27-23.99-12.95-35.33-28.85C8.73,176.02.5,149.9,0,123.06,0,78.9,28.71,55.5,56.97,55.5c15.02,0,27.53,9.86,36.95,9.86s22.96-10.45,40.04-10.45c17.83-.46,34.72,7.98,45.05,22.52ZM95.1,52.41c-1.04,0-2.07-.1-3.09-.29-.29-1.36-.44-2.74-.44-4.12.49-11.39,4.91-22.26,12.51-30.77C112.61,7.42,124.56,1.26,137.49,0c.31,1.5.46,3.03.44,4.56-.28,11.62-4.54,22.79-12.07,31.65-7.6,9.38-18.73,15.24-30.77,16.19Z" />
</svg>